<?xml version="1.0" standalone="no"?><!-- Generator: Gravit.io --><svg xmlns="http://www.w3.org/2000/svg" xmlns:xlink="http://www.w3.org/1999/xlink" style="isolation:isolate" viewBox="0 0 152.958 35" width="152.958" height="35"><defs><clipPath id="_clipPath_UDv2l4WSLMxqxM50Ng6HAmwBuRqLVpI1"><rect width="152.958" height="35"/></clipPath></defs><g clip-path="url(#_clipPath_UDv2l4WSLMxqxM50Ng6HAmwBuRqLVpI1)"><g id="Group"><path d=" M 46.436 12.599 C 43.113 12.599 41.303 13.984 39.502 15.286 L 39.502 2.633 L 33.779 2.633 L 33.779 27.135 L 39.524 32.878 L 39.524 19.101 C 41.216 17.809 42.478 17.212 44.789 17.212 C 46.245 17.212 47.195 17.993 47.195 20.159 L 47.195 34.752 L 52.939 34.752 L 52.939 20.25 C 52.939 16.098 51.506 12.599 46.436 12.599 Z " fill="rgb(192,192,192)"/><path d=" M 54.679 27.148 C 54.679 23.979 56.392 21.174 61.062 21.174 C 61.062 21.174 67.46 21.214 67.46 21.174 C 67.46 21.174 67.502 19.818 67.46 19.777 C 67.46 17.455 66.375 17.091 64.548 17.091 C 62.655 17.091 57.191 17.43 55.399 17.56 L 55.399 14.015 C 58.268 12.9 61.264 12.576 65.326 12.557 C 70.018 12.538 73.206 14.159 73.206 19.552 L 73.206 34.753 L 68.67 34.753 L 67.46 32.353 C 67.221 32.825 64.164 35.066 60.836 34.998 C 56.644 34.886 54.679 32.032 54.679 29.199 L 54.679 27.148 L 54.679 27.148 Z  M 62.46 30.383 C 64.863 30.383 67.46 28.697 67.46 28.697 L 67.46 24.704 L 62.191 25.11 C 60.674 25.252 60.424 26.374 60.424 27.327 L 60.424 28.385 C 60.424 30.197 61.404 30.383 62.46 30.383 Z " fill="rgb(192,192,192)"/><path d=" M 79.45 12.968 L 83.815 28.024 L 87.717 12.968 L 93.435 12.968 L 91.919 18.836 L 95.528 28.024 L 99.826 12.968 L 105.993 12.968 L 98.952 34.753 L 92.53 34.753 L 89.27 26.86 L 86.806 34.753 L 80.273 34.753 L 73.306 12.968 L 79.45 12.968 L 79.45 12.968 Z " fill="rgb(192,192,192)"/><path d=" M 107.198 14.116 L 110.716 12.927 L 111.68 6.854 L 116.46 6.854 L 116.46 12.927 L 121.331 12.927 L 121.331 17.316 L 116.46 17.316 L 116.46 26.055 C 116.46 29.263 117.2 29.949 118.325 30.366 C 118.325 30.366 120.787 31.228 121.072 31.228 L 121.072 34.756 L 116.064 34.756 C 112.839 34.756 110.716 32.742 110.716 26.957 L 110.716 17.316 L 107.198 17.316 L 107.198 14.116 Z " fill="rgb(192,192,192)"/><path d=" M 123.767 6.096 C 123.767 5.481 124.094 5.069 124.752 5.069 L 129.06 5.069 C 129.674 5.069 129.98 5.522 129.98 6.096 L 129.98 9.733 C 129.98 10.347 129.633 10.677 129.06 10.677 L 124.752 10.677 C 124.177 10.677 123.767 10.308 123.767 9.733 L 123.767 6.096 Z  M 123.974 12.968 L 129.717 12.968 L 129.717 34.753 L 123.974 34.753 L 123.974 12.968 Z " fill="rgb(192,192,192)"/><path d=" M 143.018 12.763 C 150.521 12.763 152.958 15.512 152.958 24.167 C 152.958 32.25 150.634 34.957 143.018 34.957 C 135.495 34.957 133.08 31.962 133.08 24.167 C 133.08 15.266 135.655 12.763 143.018 12.763 Z  M 143.018 30.343 C 146.255 30.343 147.214 29.903 147.214 24.167 C 147.214 18.066 146.442 17.378 143.018 17.378 C 139.62 17.378 138.824 18.07 138.824 24.167 C 138.824 29.805 139.966 30.343 143.018 30.343 Z " fill="rgb(192,192,192)"/></g><path d=" M 4.673 27.231 C 7.685 30.244 11.693 31.905 15.954 31.905 C 18.882 31.905 21.76 31.087 24.279 29.541 L 24.812 29.215 L 30.438 34.843 L 39.25 34.843 L 29.216 24.809 L 29.543 24.278 C 33.416 17.967 32.466 9.905 27.234 4.673 C 24.221 1.66 20.214 0 15.954 0 C 11.692 0 7.688 1.66 4.675 4.673 C 1.661 7.686 0 11.693 0 15.953 C 0 20.212 1.66 24.218 4.673 27.231 Z  M 9.08 9.079 C 10.914 7.242 13.356 6.231 15.954 6.231 C 18.55 6.231 20.991 7.242 22.826 9.079 C 24.663 10.916 25.674 13.357 25.674 15.953 C 25.674 18.55 24.663 20.991 22.826 22.827 C 20.992 24.662 18.55 25.673 15.954 25.673 C 13.356 25.673 10.915 24.663 9.079 22.827 C 7.243 20.989 6.232 18.549 6.232 15.953 C 6.232 13.357 7.243 10.916 9.08 9.079 Z " fill="rgb(192,192,192)"/><g id="Group"><path d=" M 19.975 17.071 L 19.975 17.095 C 20.095 17.314 20.163 17.563 20.166 17.829 C 20.166 18.668 19.485 19.349 18.646 19.349 C 17.806 19.349 17.127 18.668 17.127 17.829 C 17.127 17.459 17.259 17.119 17.481 16.855 C 17.481 16.855 21.193 11.687 15.996 8.258 C 15.996 8.258 17.504 12.328 13.91 14.039 C 13.91 14.039 12.917 14.74 14.012 12.414 C 14.012 12.414 10.961 14.129 10.961 18.269 C 10.961 20.14 11.93 21.782 13.392 22.728 C 13.347 22.559 13.318 22.366 13.318 22.138 C 13.32 20.478 14.808 18.537 15.265 18.54 C 15.265 18.54 15.38 20.507 15.908 21.434 C 16.324 22.219 16.071 23.088 15.52 23.523 C 15.767 23.559 16.019 23.583 16.276 23.583 C 17.679 23.583 18.957 23.038 19.907 22.148 C 19.907 22.148 19.905 22.143 19.905 22.142 C 21.678 19.812 20.65 17.917 19.975 17.071 Z " fill="rgb(236,121,41)"/></g></g></svg>