<?xml version="1.0" encoding="UTF-8"?><svg xmlns="http://www.w3.org/2000/svg" width="38" height="38" viewBox="0 0 38 38"><g id="uuid-978e5652-4fad-4fee-aa0e-32c084bbbdb7"><rect x="1" y="1" width="36" height="36" rx="9" ry="9" fill="#fff" stroke-width="0"/><path d="m28,2.25c4.27,0,7.75,3.48,7.75,7.75v18c0,4.27-3.48,7.75-7.75,7.75H10c-4.27,0-7.75-3.48-7.75-7.75V10c0-4.27,3.48-7.75,7.75-7.75h18m0-1.25H10C5.03,1,1,5.03,1,10v18c0,4.97,4.03,9,9,9h18c4.97,0,9-4.03,9-9V10c0-4.97-4.03-9-9-9h0Z" fill="#e0e0e0" stroke-width="0"/></g><g id="uuid-e99c774b-3200-4717-bb40-37d1e9b3078a"><path d="m20.22,11.9l-5.33,5.33c.38.19.69.5.88.88l5.33-5.33c-.38-.19-.69-.5-.88-.88Z" stroke-width="0"/><path d="m12,18.38h-3c-.34,0-.62.28-.62.62s.28.62.62.62h3s.07-.01.1-.02c-.06-.19-.1-.39-.1-.6s.04-.41.1-.6c-.03,0-.07-.02-.1-.02Z" stroke-width="0"/><path d="m24,11.62h4c.34,0,.62-.28.62-.62s-.28-.62-.62-.62h-4s-.07.01-.1.02c.06.19.1.39.1.6s-.04.41-.1.6c.03,0,.07.02.1.02Z" stroke-width="0"/><path d="m28,26.38h-4s-.07.01-.1.02c.06.19.1.39.1.6s-.04.41-.1.6c.03,0,.07.02.1.02h4c.34,0,.62-.28.62-.62s-.28-.62-.62-.62Z" stroke-width="0"/><path d="m28,18.38h-4s-.07.01-.1.02c.06.19.1.39.1.6s-.04.41-.1.6c.03,0,.07.02.1.02h4c.34,0,.62-.28.62-.62s-.28-.62-.62-.62Z" stroke-width="0"/><path d="m22,24.38c-1.45,0-2.62,1.18-2.62,2.62s1.18,2.62,2.62,2.62,2.62-1.18,2.62-2.62-1.18-2.62-2.62-2.62Zm0,4c-.76,0-1.38-.62-1.38-1.38s.62-1.38,1.38-1.38,1.38.62,1.38,1.38-.62,1.38-1.38,1.38Z" fill="#e00" stroke-width="0"/><path d="m22,13.62c1.45,0,2.62-1.18,2.62-2.62s-1.18-2.62-2.62-2.62-2.62,1.18-2.62,2.62,1.18,2.62,2.62,2.62Zm0-4c.76,0,1.38.62,1.38,1.38s-.62,1.38-1.38,1.38-1.38-.62-1.38-1.38.62-1.38,1.38-1.38Z" fill="#e00" stroke-width="0"/><path d="m14,16.38c-1.45,0-2.62,1.18-2.62,2.62s1.18,2.62,2.62,2.62,2.62-1.18,2.62-2.62-1.18-2.62-2.62-2.62Zm0,4c-.76,0-1.38-.62-1.38-1.38s.62-1.38,1.38-1.38,1.38.62,1.38,1.38-.62,1.38-1.38,1.38Z" fill="#e00" stroke-width="0"/><path d="m22,16.38c-1.45,0-2.62,1.18-2.62,2.62s1.18,2.62,2.62,2.62,2.62-1.18,2.62-2.62-1.18-2.62-2.62-2.62Zm0,4c-.76,0-1.38-.62-1.38-1.38s.62-1.38,1.38-1.38,1.38.62,1.38,1.38-.62,1.38-1.38,1.38Z" fill="#e00" stroke-width="0"/></g></svg>