<?xml version="1.0" encoding="UTF-8"?>
<svg width="1500px" height="850px" viewBox="0 0 1500 850" version="1.1" xmlns="http://www.w3.org/2000/svg" xmlns:xlink="http://www.w3.org/1999/xlink">
    <!-- Generator: Sketch 53.2 (72643) - https://sketchapp.com -->
    <title>BG</title>
    <desc>Created with Sketch.</desc>
    <g id="Background-Downstream" stroke="none" stroke-width="1" fill="none" fill-rule="evenodd">
        <g id="Login-Regular---Full-Feature">
            <g id="BG">
                <rect id="Rectangle" fill="#1A1A1A" x="0" y="0" width="1500" height="850"></rect>
                <g id="Red-Hat-Hat-RGB-grey" transform="translate(235.000000, 13.000000)" fill="#090A0A" fill-rule="nonzero">
                    <path d="M774.813452,506.645833 C851.074619,506.645833 961.500788,490.775 961.500788,399.822917 C961.500788,393.108333 960.890699,385.783333 959.67052,379.06875 L914.52391,181.29375 C904.152391,137.954167 895.001051,117.810417 818.739884,79.9645833 C759.561219,49.44375 630.83237,0 592.396742,0 C556.401471,-1.08431782e-14 546.029953,45.78125 503.933789,45.78125 C463.057803,45.78125 433.163426,11.5979167 394.727798,11.5979167 C358.122438,11.5979167 334.328954,36.625 316.026274,87.9 C316.026274,87.9 264.77877,232.56875 258.067788,253.933333 C256.847609,257.595833 256.847609,261.86875 256.847609,265.53125 C256.23752,321.689583 477.699947,506.035417 774.813452,506.645833 M973.092486,437.058333 C983.464004,487.1125 983.464004,492.60625 983.464004,498.710417 C983.464004,584.16875 887.679979,631.78125 761.391487,631.78125 C475.869679,631.78125 226.343142,464.527083 226.343142,354.041667 C226.343142,338.78125 229.393589,323.520833 235.494482,309.48125 C132.999475,314.364583 0,332.677083 0,449.877083 C0,642.158333 455.126642,879 815.079348,879 C1091.44982,879 1161,753.864583 1161,654.977083 C1161,577.454167 1093.89017,489.554167 973.092486,437.058333" id="Shape"></path>
                </g>
            </g>
        </g>
    </g>
</svg>